# xmcd
#
# Track frame offsets:
#	150
#	13538
#	24971
#	35978
#	44700
#	56329
#	65973
#	78132
#	94595
#	111024
#	120822
#	133120
#	143376
#	154545
#	167402
#	178958
#	193531
#	201991
#	214526
#	224765
#
# Disc length: 3255 seconds
#
# Revision: 0
# Processed by: cddbd v1.5.1PL0 Copyright (c) Steve Scherf et al.
# Submitted via: audiograbber 1.83.01
#
DISCID=160cb514
DTITLE=Sampler - Golden Country Hits CD3
DYEAR=1900
DGENRE=
TTITLE0=Barbara Faichild - Teddy Bear Song
TTITLE1=George Jones - A House Without Love Is Not A Home
TTITLE2=Tammy Wynette - Fairy Tales
TTITLE3=Kathy Mattea - Put Yourself In My Place
TTITLE4=Barbara Mandrell - Give A Little, Take A Little
TTITLE5=Willie Nelson - Half A Man
TTITLE6=Kitty Wells - Left To Right
TTITLE7=John Breck, Jeff Turner - Amazing Grace
TTITLE8=Hoyt Axton - Nashville
TTITLE9=Conway Twitty - Where I Stand
TTITLE10=Johnny Paycheck - She Thinks I Still Care
TTITLE11=Patsy Cline - Too Many Secrets
TTITLE12=Porter Wagoner - Enough To Make A Grown Man
TTITLE13=Willie Nelson - A Moment Isn't Very Long
TTITLE14=Mickey Gilley - You Can Count Me Missing
TTITLE15=Hoyt Axton - Evangelina
TTITLE16=Jim Reeves - The Wind Up Doll
TTITLE17=Gail Davies - You Turn Me On, I'm A Radio
TTITLE18=Patsy Cline - Walking Dream
TTITLE19=Ferlin Huskey - Little Joe
EXTD=
EXTT0=
EXTT1=
EXTT2=
EXTT3=
EXTT4=
EXTT5=
EXTT6=
EXTT7=
EXTT8=
EXTT9=
EXTT10=
EXTT11=
EXTT12=
EXTT13=
EXTT14=
EXTT15=
EXTT16=
EXTT17=
EXTT18=
EXTT19=
PLAYORDER=
